<svg xmlns="http://www.w3.org/2000/svg" version="1.0" viewBox="0 0 36 35">
  <defs/>
  <path d="M8.7 5.5l-8.9 5.2 3.1 2.2c2.3 1.7 3.1 3 3.1 5.3 0 1.6.8 4.3 1.7 5.9 1.4 2.4 1.5 3.3.5 4.9-2.1 3.4-1.5 6 1.3 6s3.4-2.5 1.4-6.1c-1-1.9-.8-2 3.4-1.4 9 1.4 15.7-2.4 15.7-8.9 0-2.7.7-3.9 3.1-5.7l3.1-2.1L27 5.4c-5.1-3-9.3-5.4-9.4-5.3 0 0-4.1 2.5-8.9 5.4zm16.8 1.2c3.6 2.1 6.5 4 6.5 4.3 0 .7-13 8-14.4 8-.6 0-2.2-.9-3.6-1.9l-2.4-1.9 3.7-1.8c2-1 3.7-2.1 3.7-2.6 0-1.2-.6-1-5.1 1.3-3.5 1.7-4.5 1.9-7 .9-1.6-.7-2.9-1.5-2.9-1.9 0-.9 12.2-8 13.8-8.1.7 0 4.2 1.7 7.7 3.7zM9 19.2c0 2.5-.3 2.9-1 1.8-1.3-2-1.3-5 0-5 .6 0 1 1.5 1 3.2zm20-1.3c0 5.3-7.1 9.1-14.4 7.7-3-.6-3.4-1.1-3.8-4.1-.5-4-.1-4.2 4.1-1.8 3 1.8 3.2 1.8 7.8-.9 5.7-3.3 6.3-3.4 6.3-.9zM10.5 32c.3.5.1 1-.4 1-.6 0-1.1-.5-1.1-1 0-.6.2-1 .4-1 .3 0 .8.4 1.1 1z"/>
</svg>
