<svg xmlns="http://www.w3.org/2000/svg" version="1.0" viewBox="0 0 28 33">
  <defs/>
  <path d="M11.5 3.8C9.8 6.9 8.9 7.5 6 7.7c-1.9.1-4.1.2-4.7.2-.9.1-.6 1.4.8 4.4l2.1 4.3-2.1 4.2L0 24.9l4.8.3c4.3.3 4.9.6 6.7 4 1.1 2.1 2.2 3.8 2.5 3.8.3 0 1.4-1.7 2.5-3.8 1.8-3.4 2.4-3.7 6.7-4l4.8-.3-2.1-4.1-2.1-4.2 2.1-4.3c1.4-3 1.7-4.3.8-4.4-.6 0-2.8-.1-4.7-.2-2.9-.2-3.8-.8-5.5-3.9C15.4 1.7 14.3 0 14 0c-.3 0-1.4 1.7-2.5 3.8zm3.9 1.8c.9 2.3.8 2.4-1.4 2.4-1.1 0-2-.2-2-.4C12 6.4 13.3 4 14 4c.4 0 1.1.7 1.4 1.6zm-8.5 6.5c-.9 1.7-1.3 1.9-2 .8C3.5 10.7 3.8 10 6 10c1.8 0 1.9.3.9 2.1zm12.4 1.1c1.7 3 1.7 3.3 0 6.5C17.8 22.5 17 23 14 23c-2.9 0-3.8-.6-5.3-3.2-1.7-3-1.7-3.3 0-6.5C10.2 10.5 11 10 14 10c2.9 0 3.8.6 5.3 3.2zm4.7-2.5c0 .5-.4 1.4-.9 2.2-.7 1.1-1.1.9-2-.8-1-1.8-.9-2.1.9-2.1 1.1 0 2 .3 2 .7zM7 21c.9 1.8.8 2-1.5 2s-2.4-.2-1.3-2c.7-1.1 1.4-2 1.5-2 .1 0 .7.9 1.3 2zm16.9.2c1.2 1.6 1.1 1.8-1.3 1.8-2.4 0-2.6-.2-1.6-2.1.7-1.1 1.3-1.9 1.4-1.7.1.1.8 1.1 1.5 2zM16 25.7c0 .5-.5 1.5-1 2.3-.9 1.3-1.1 1.3-2 0-1.5-2.2-1.2-3 1-3 1.1 0 2 .3 2 .7z"/>
</svg>
