<svg xmlns="http://www.w3.org/2000/svg" version="1.0" viewBox="0 0 32 29"><path d="M17.1 1.3c-1.8 1.8-1.3 3.9 1.6 6.9 3.4 3.6 5.5 3.5 8.7-.3 2.9-3.4 3-3.8 1.7-5.8-1.1-1.8-10.4-2.4-12-.8zm4.7 1.9c.8.8 1.5.8 2.7-.2 1.2-1 1.9-1 2.8-.1.9.9.5 1.8-1.6 3.8L23 9.5l-2.6-2.7c-1.5-1.4-2.3-3.1-2-3.7.9-1.4 1.9-1.4 3.4.1zM.4 15.4c-.3.7-.4 4-.2 7.2.3 5.4.5 5.9 2.7 6.2 1.5.2 3-.3 3.7-1.3 1-1.4 1.8-1.5 5.5-.5 6.3 1.7 16.7-.6 19.1-4.3 1.4-2.3-.4-3.9-4-3.3-2.6.4-3.8.1-5.1-1.4-1.1-1.3-4-2.1-10-2.9C1.4 13.7 1 13.7.4 15.4zM6 17.7C6 22.3 4.6 27 3.4 27c-1 0-1.4-1.5-1.4-5.5 0-4.8.2-5.5 2-5.5 1.2 0 2 .7 2 1.7zm10.4-.1c5.1.7 6.3 2.4 1.6 2.4-1.6 0-3 .5-3 1.1 0 .8 2.3 1 7.5.7 4.1-.3 7.2-.1 7 .3-1.2 1.8-10.8 4.1-14.7 3.5-6.3-1-7.5-2-7-5.5.5-3.4.9-3.5 8.6-2.5z"/></svg>