<svg xmlns="http://www.w3.org/2000/svg" version="1.0" viewBox="0 0 23 25">
  <defs/>
  <path d="M0 7c0 5.7 2.3 9.6 7.1 12 3.8 2 4.5 4 1.3 4-.8 0-1.4.4-1.4 1 0 1.3 7.7 1.3 8.5 0 .3-.5-.3-1-1.4-1-3.5 0-2.3-2.4 1.9-4.2 2.9-1.2 4.5-2.7 5.5-5.2 1.7-4 2-10.6.5-10.6-.5 0-1 2.1-1 4.6 0 3.7-.5 5.1-2.9 7.5-2.7 2.7-7 4.2-5.6 1.9.3-.6 1.2-1 2-1 2.3 0 4.5-4.2 4.5-8.8 0-2.4-.4-4.1-.8-3.8-.5.3-.7 1.8-.4 3.4.3 2-.3 3.7-2.1 5.8-1.4 1.6-2.9 2.6-3.3 2.1-.4-.4.2-1.4 1.4-2.3 1.6-1.1 2.2-2.5 2.2-5.5 0-2.1-.4-3.9-1-3.9-.5 0-1 1.8-1 4s-.4 4-1 4c-.5 0-1-1.8-1-4.1 0-2.7-.4-3.8-1.1-3.3-.7.4-.9 2.1-.6 4 .3 1.9.2 3.4-.4 3.4-.5 0-.9-1.8-.9-4s-.4-4-1-4c-1.6 0-1.1 7.2.7 9.2 2.3 2.6.9 3.4-1.6.9C5.6 11.6 5 9.7 5 6.8c0-2.3-.3-3.8-.7-3.4-.4.4-.6 2.6-.4 4.9.3 4.3 2.4 7.7 4.7 7.7.7 0 1.6.5 1.9 1 1.4 2.3-2.9.8-5.6-1.9C2.5 12.7 2 11.3 2 7.6 2 5.1 1.6 3 1 3 .5 3 0 4.8 0 7z"/>
</svg>
